<svg width="48" height="48" viewBox="0 0 48 48" fill="none" xmlns="http://www.w3.org/2000/svg">
<path fill-rule="evenodd" clip-rule="evenodd" d="M24 42C26.3638 42 28.7044 41.5344 30.8883 40.6298C33.0722 39.7253 35.0565 38.3994 36.7279 36.7279C38.3994 35.0565 39.7253 33.0722 40.6298 30.8883C41.5344 28.7044 42 26.3638 42 24C42 21.6362 41.5344 19.2956 40.6298 17.1117C39.7253 14.9278 38.3994 12.9435 36.7279 11.2721C35.0565 9.60062 33.0722 8.27475 30.8883 7.37017C28.7044 6.46558 26.3638 6 24 6C19.2261 6 14.6477 7.89642 11.2721 11.2721C7.89642 14.6477 6 19.2261 6 24C6 28.7739 7.89642 33.3523 11.2721 36.7279C14.6477 40.1036 19.2261 42 24 42Z" fill="#005EFE"/>
<path d="M29.612 30.312V33H19.652V30.312H23.012V21.492C23.012 21.268 23.016 21.044 23.024 20.82C23.032 20.588 23.044 20.356 23.06 20.124L21.068 21.78C20.892 21.916 20.716 22 20.54 22.032C20.372 22.056 20.212 22.056 20.06 22.032C19.908 22 19.772 21.948 19.652 21.876C19.532 21.796 19.444 21.716 19.388 21.636L18.212 20.076L23.66 15.504H26.732V30.312H29.612Z" fill="white"/>
</svg>
