<svg width="48" height="48" viewBox="0 0 48 48" fill="none" xmlns="http://www.w3.org/2000/svg">
<path fill-rule="evenodd" clip-rule="evenodd" d="M24 42C26.3638 42 28.7044 41.5344 30.8883 40.6298C33.0722 39.7253 35.0565 38.3994 36.7279 36.7279C38.3994 35.0565 39.7253 33.0722 40.6298 30.8883C41.5344 28.7044 42 26.3638 42 24C42 21.6362 41.5344 19.2956 40.6298 17.1117C39.7253 14.9278 38.3994 12.9435 36.7279 11.2721C35.0565 9.60062 33.0722 8.27475 30.8883 7.37017C28.7044 6.46558 26.3638 6 24 6C19.2261 6 14.6477 7.89642 11.2721 11.2721C7.89642 14.6477 6 19.2261 6 24C6 28.7739 7.89642 33.3523 11.2721 36.7279C14.6477 40.1036 19.2261 42 24 42Z" fill="#005EFE"/>
<path d="M28.712 29.64C29.112 29.64 29.428 29.752 29.66 29.976C29.892 30.192 30.008 30.48 30.008 30.84V33H17.72V31.8C17.72 31.568 17.768 31.32 17.864 31.056C17.96 30.792 18.128 30.552 18.368 30.336L23.408 25.26C23.84 24.828 24.216 24.416 24.536 24.024C24.856 23.632 25.12 23.248 25.328 22.872C25.536 22.488 25.692 22.108 25.796 21.732C25.9 21.348 25.952 20.944 25.952 20.52C25.952 19.824 25.784 19.292 25.448 18.924C25.12 18.548 24.616 18.36 23.936 18.36C23.384 18.36 22.916 18.508 22.532 18.804C22.156 19.092 21.896 19.452 21.752 19.884C21.584 20.324 21.364 20.616 21.092 20.76C20.82 20.904 20.432 20.936 19.928 20.856L17.96 20.508C18.088 19.636 18.332 18.876 18.692 18.228C19.06 17.58 19.512 17.04 20.048 16.608C20.592 16.176 21.212 15.856 21.908 15.648C22.604 15.432 23.352 15.324 24.152 15.324C25.016 15.324 25.792 15.452 26.48 15.708C27.176 15.956 27.768 16.304 28.256 16.752C28.744 17.2 29.116 17.736 29.372 18.36C29.636 18.976 29.768 19.656 29.768 20.4C29.768 21.04 29.676 21.632 29.492 22.176C29.316 22.72 29.072 23.24 28.76 23.736C28.448 24.224 28.084 24.7 27.668 25.164C27.26 25.62 26.824 26.084 26.36 26.556L22.94 30.06C23.38 29.924 23.816 29.82 24.248 29.748C24.68 29.676 25.08 29.64 25.448 29.64H28.712Z" fill="white"/>
</svg>
