<svg width="48" height="48" viewBox="0 0 48 48" fill="none" xmlns="http://www.w3.org/2000/svg">
<path fill-rule="evenodd" clip-rule="evenodd" d="M24 42C26.3638 42 28.7044 41.5344 30.8883 40.6298C33.0722 39.7253 35.0565 38.3994 36.7279 36.7279C38.3994 35.0565 39.7253 33.0722 40.6298 30.8883C41.5344 28.7044 42 26.3638 42 24C42 21.6362 41.5344 19.2956 40.6298 17.1117C39.7253 14.9278 38.3994 12.9435 36.7279 11.2721C35.0565 9.60062 33.0722 8.27475 30.8883 7.37017C28.7044 6.46558 26.3638 6 24 6C19.2261 6 14.6477 7.89642 11.2721 11.2721C7.89642 14.6477 6 19.2261 6 24C6 28.7739 7.89642 33.3523 11.2721 36.7279C14.6477 40.1036 19.2261 42 24 42Z" fill="black" fill-opacity="0.4"/>
<path d="M18.056 20.508C18.184 19.636 18.428 18.876 18.788 18.228C19.156 17.58 19.608 17.04 20.144 16.608C20.688 16.176 21.308 15.856 22.004 15.648C22.7 15.432 23.448 15.324 24.248 15.324C25.112 15.324 25.88 15.448 26.552 15.696C27.224 15.936 27.792 16.264 28.256 16.68C28.72 17.096 29.072 17.58 29.312 18.132C29.552 18.676 29.672 19.252 29.672 19.86C29.672 20.412 29.616 20.9 29.504 21.324C29.392 21.74 29.224 22.104 29 22.416C28.784 22.72 28.512 22.98 28.184 23.196C27.864 23.404 27.496 23.58 27.08 23.724C29.016 24.404 29.984 25.724 29.984 27.684C29.984 28.612 29.816 29.42 29.48 30.108C29.144 30.796 28.692 31.368 28.124 31.824C27.564 32.28 26.912 32.624 26.168 32.856C25.424 33.08 24.648 33.192 23.84 33.192C23.008 33.192 22.268 33.104 21.62 32.928C20.972 32.744 20.396 32.464 19.892 32.088C19.388 31.704 18.944 31.216 18.56 30.624C18.184 30.032 17.856 29.328 17.576 28.512L19.232 27.84C19.664 27.672 20.064 27.628 20.432 27.708C20.8 27.788 21.064 27.972 21.224 28.26C21.584 28.924 21.964 29.408 22.364 29.712C22.772 30.008 23.248 30.156 23.792 30.156C24.208 30.156 24.568 30.088 24.872 29.952C25.184 29.808 25.44 29.628 25.64 29.412C25.848 29.188 26.004 28.936 26.108 28.656C26.212 28.376 26.264 28.092 26.264 27.804C26.264 27.428 26.236 27.092 26.18 26.796C26.132 26.492 25.988 26.232 25.748 26.016C25.508 25.8 25.144 25.636 24.656 25.524C24.176 25.404 23.504 25.344 22.64 25.344V22.776C23.368 22.776 23.956 22.72 24.404 22.608C24.852 22.496 25.196 22.344 25.436 22.152C25.684 21.952 25.848 21.712 25.928 21.432C26.008 21.152 26.048 20.844 26.048 20.508C26.048 19.82 25.88 19.292 25.544 18.924C25.216 18.548 24.712 18.36 24.032 18.36C23.48 18.36 23.012 18.508 22.628 18.804C22.252 19.092 21.992 19.452 21.848 19.884C21.68 20.324 21.46 20.616 21.188 20.76C20.916 20.904 20.528 20.936 20.024 20.856L18.056 20.508Z" fill="white"/>
</svg>
