<svg width="18" height="18" viewBox="0 0 18 18" fill="none" xmlns="http://www.w3.org/2000/svg">
<path d="M9.40703 11.9475L15.3808 5.67784C15.4805 5.57322 15.5361 5.43424 15.5361 5.28971C15.5361 5.14518 15.4805 5.0062 15.3808 4.90159L15.374 4.89484C15.3257 4.84395 15.2675 4.80342 15.203 4.77573C15.1385 4.74804 15.069 4.73376 14.9988 4.73376C14.9286 4.73376 14.8592 4.74804 14.7947 4.77573C14.7302 4.80342 14.672 4.84395 14.6237 4.89484L8.99865 10.7988L3.3759 4.89484C3.32756 4.84395 3.26936 4.80342 3.20486 4.77573C3.14037 4.74804 3.07091 4.73376 3.00071 4.73376C2.93052 4.73376 2.86106 4.74804 2.79656 4.77573C2.73206 4.80342 2.67387 4.84395 2.62553 4.89484L2.61878 4.90159C2.51905 5.0062 2.46342 5.14518 2.46342 5.28971C2.46342 5.43424 2.51905 5.57322 2.61878 5.67784L8.59253 11.9475C8.64506 12.0026 8.70824 12.0465 8.77825 12.0765C8.84825 12.1065 8.92362 12.1219 8.99978 12.1219C9.07593 12.1219 9.1513 12.1065 9.2213 12.0765C9.29131 12.0465 9.35449 12.0026 9.40703 11.9475Z" fill="black"/>
</svg>
