<svg width="497" height="497" viewBox="0 0 497 497" fill="none" xmlns="http://www.w3.org/2000/svg">
<circle cx="248.5" cy="248.5" r="248.5" fill="url(#paint0_linear_32_525)"/>
<circle cx="248" cy="249" r="176" fill="#0773E2"/>
<circle cx="248" cy="249" r="175.75" stroke="white" stroke-opacity="0.6" stroke-width="0.5"/>
<rect x="272" y="139" width="201.313" height="220" rx="10.1931" fill="#F1F5F9"/>
<path d="M272 149.193C272 143.564 276.564 139 282.193 139H463.12C468.749 139 473.313 143.564 473.313 149.193V167.031H272V149.193Z" fill="white"/>
<path d="M403.66 153.015H460.571" stroke="#E3E8EF" stroke-width="5.94595" stroke-linecap="round"/>
<path d="M394.316 189.116H449.529" stroke="#CDD7E3" stroke-width="4.2471" stroke-linecap="round"/>
<rect x="284.741" y="180.622" width="87.4903" height="17.8378" rx="3.39768" fill="#E2E8EE"/>
<path d="M300.031 189.116H355.244" stroke="#A6B3C4" stroke-width="4.2471" stroke-linecap="round"/>
<g filter="url(#filter0_d_32_525)">
<rect opacity="0.5" x="284.741" y="209.502" width="174.981" height="39.9228" rx="3.39768" fill="white"/>
<path d="M326.363 224.792H398.564" stroke="#9DABBE" stroke-width="4.2471" stroke-linecap="round"/>
<path d="M326.363 233.286H379.877" stroke="#E4EAF0" stroke-width="4.2471" stroke-linecap="round"/>
</g>
<g filter="url(#filter1_d_32_525)">
<rect opacity="0.5" x="284.741" y="257.069" width="174.981" height="39.9228" rx="3.39768" fill="white"/>
<path d="M326.363 272.359H370.533" stroke="#9DABBE" stroke-width="4.2471" stroke-linecap="round"/>
<path d="M326.363 280.853H389.22" stroke="#E4EAF0" stroke-width="4.2471" stroke-linecap="round"/>
</g>
<g filter="url(#filter2_d_32_525)">
<rect opacity="0.5" x="284.741" y="305.487" width="174.981" height="39.9228" rx="3.39768" fill="white"/>
<path d="M326.363 320.776H397.715" stroke="#9DABBE" stroke-width="4.2471" stroke-linecap="round"/>
<path d="M326.363 329.27H372.232" stroke="#E4EAF0" stroke-width="4.2471" stroke-linecap="round"/>
</g>
<circle cx="288.988" cy="153.44" r="4.2471" fill="#F26161"/>
<circle cx="301.73" cy="153.44" r="4.2471" fill="#FFD43A"/>
<circle cx="314.471" cy="153.44" r="4.2471" fill="#6ADE84"/>
<path d="M229.386 233.88H272.645V257.092H229.386C222.633 257.092 220.593 264.127 220.417 267.644V340.974C220.417 358.7 201.425 366.649 191.929 368.407H139.173V345.195H188.236C196.255 345.195 197.204 338.864 196.677 335.699V267.644C196.677 260.469 191.05 257.62 188.236 257.092H88V233.88H188.236C194.145 233.88 196.325 228.604 196.677 225.967C196.853 205.216 197.099 161.921 196.677 154.746C196.255 147.572 190.874 146.833 188.236 147.361H139.173V123.093H191.929C210.499 123.093 218.659 141.03 220.417 149.998C220.241 173.035 219.995 220.48 220.417 225.967C220.839 231.453 226.572 233.528 229.386 233.88Z" fill="url(#paint1_linear_32_525)" fill-opacity="0.4"/>
<circle cx="108" cy="358" r="34" fill="white" fill-opacity="0.6"/>
<circle cx="107.5" cy="358.5" r="26.5" fill="white"/>
<circle cx="68" cy="248" r="34" fill="white" fill-opacity="0.6"/>
<circle cx="67.5" cy="248.5" r="26.5" fill="white"/>
<circle cx="108" cy="138" r="34" fill="white" fill-opacity="0.6"/>
<circle cx="107.5" cy="138.5" r="26.5" fill="white"/>
<path d="M100.043 152.279C97.9241 151.499 96.0382 150.192 94.5629 148.482C93.0876 146.772 92.0715 144.715 91.61 142.504L88.4283 127.535C87.9683 125.465 89.2908 123.433 91.3608 122.992L110.087 119.025L110.144 119.006C112.195 118.603 114.207 119.926 114.629 121.957L115.3 125.158L123.637 126.941H123.695C125.707 127.401 127.011 129.432 126.589 131.464L123.407 146.452C123.04 148.174 122.337 149.807 121.339 151.257C120.341 152.707 119.067 153.946 117.589 154.904C116.112 155.861 114.461 156.518 112.729 156.838C110.998 157.157 109.221 157.132 107.499 156.764C104.578 156.155 101.95 154.574 100.043 152.279ZM122.832 130.678L104.107 126.692L100.925 141.68V141.737C99.8325 146.874 103.148 151.934 108.304 153.027C113.46 154.119 118.558 150.822 119.651 145.667L122.832 130.678ZM115.166 146.625C114.56 147.65 113.648 148.459 112.558 148.937C111.467 149.415 110.254 149.538 109.09 149.289C107.929 149.041 106.875 148.436 106.075 147.56C105.274 146.684 104.767 145.58 104.624 144.402L115.166 146.625ZM100.733 124.909L92.1658 126.749L95.3475 141.718L95.3666 141.776C95.6541 143.137 96.2291 144.363 97.015 145.417C96.8233 143.942 96.8616 142.408 97.1875 140.875L98.0116 137.042C97.1491 136.888 96.4016 136.409 95.9991 135.719C96.1141 134.55 97.0725 133.515 98.395 133.208H98.8741L100.369 125.906C100.446 125.542 100.561 125.216 100.733 124.909ZM113.307 138.441C113.92 137.425 115.223 136.888 116.546 137.176C117.868 137.444 118.827 138.46 118.999 139.648C118.367 140.645 117.082 141.182 115.741 140.875C114.418 140.626 113.46 139.61 113.307 138.441ZM103.953 136.447C104.567 135.432 105.851 134.895 107.173 135.182C108.457 135.451 109.473 136.486 109.627 137.655C108.994 138.652 107.71 139.207 106.387 138.958C105.065 138.632 104.107 137.617 103.953 136.447ZM107.442 123.491L111.198 124.296L110.892 122.762L107.442 123.491Z" fill="#0452D8"/>
<path d="M72.6349 234.487L81.6293 243.481C84.5013 240.624 84.6156 237.001 81.857 234.259C79.1152 231.55 75.4916 231.614 72.6349 234.487ZM71.0032 236.136C69.2725 237.833 68.5545 239.776 68.799 241.653L53.6356 257.991C53.0158 258.661 52.9176 259.591 53.6844 260.359L51.5951 263.052C51.3834 263.312 51.3834 263.688 51.6773 263.982L52.1508 264.472C52.428 264.749 52.8034 264.766 53.0973 264.537L55.7904 262.431C56.5251 263.199 57.4715 263.1 58.1241 262.48L66.5794 254.645V263.966C66.5794 264.798 67.248 265.451 68.0809 265.451C68.2766 265.453 68.4707 265.416 68.6519 265.342C68.8331 265.268 68.9977 265.159 69.1361 265.021C69.2745 264.882 69.3838 264.718 69.4577 264.537C69.5316 264.355 69.5686 264.161 69.5664 263.966V254.319L69.4522 251.985L74.4303 247.365C76.3079 247.611 78.2829 246.843 79.9808 245.13L71.0032 236.136ZM55.3008 259.33L69.6974 244.085C69.9745 244.541 70.3172 244.982 70.7253 245.407C71.1138 245.802 71.5402 246.157 71.9984 246.468L56.8183 260.832L55.3008 259.33Z" fill="#0452D8"/>
<g clip-path="url(#clip0_32_525)">
<path d="M104 348C104 349.591 103.368 351.117 102.243 352.243C101.117 353.368 99.5913 354 98 354C96.4087 354 94.8826 353.368 93.7574 352.243C92.6321 351.117 92 349.591 92 348C92 346.409 92.6321 344.883 93.7574 343.757C94.8826 342.632 96.4087 342 98 342C99.5913 342 101.117 342.632 102.243 343.757C103.368 344.883 104 346.409 104 348ZM94 348C94 349.061 94.4214 350.078 95.1716 350.828C95.9217 351.579 96.9391 352 98 352C99.0609 352 100.078 351.579 100.828 350.828C101.579 350.078 102 349.061 102 348C102 346.939 101.579 345.922 100.828 345.172C100.078 344.421 99.0609 344 98 344C96.9391 344 95.9217 344.421 95.1716 345.172C94.4214 345.922 94 346.939 94 348Z" fill="#0452D8"/>
<path d="M110 354H111C111.97 354 112.907 354.352 113.637 354.992C114.367 355.631 114.839 356.514 114.966 357.476L121.186 354.712C121.49 354.576 121.824 354.519 122.156 354.545C122.489 354.571 122.809 354.68 123.089 354.861C123.368 355.043 123.598 355.291 123.757 355.584C123.916 355.877 124 356.205 124 356.538V371.462C124 371.795 123.916 372.123 123.757 372.415C123.598 372.708 123.369 372.956 123.089 373.138C122.81 373.319 122.49 373.428 122.158 373.454C121.826 373.48 121.492 373.423 121.188 373.288L114.966 370.524C114.839 371.486 114.367 372.369 113.637 373.008C112.907 373.648 111.97 374 111 374H96C94.9391 374 93.9217 373.579 93.1716 372.828C92.4214 372.078 92 371.061 92 370V358C92 356.939 92.4214 355.922 93.1716 355.172C93.9217 354.421 94.9391 354 96 354H110ZM122 371.46V356.54L115 359.65V368.35L122 371.46ZM94 358V370C94 370.53 94.2107 371.039 94.5858 371.414C94.9609 371.789 95.4696 372 96 372H111C111.53 372 112.039 371.789 112.414 371.414C112.789 371.039 113 370.53 113 370V358C113 357.47 112.789 356.961 112.414 356.586C112.039 356.211 111.53 356 111 356H96C95.4696 356 94.9609 356.211 94.5858 356.586C94.2107 356.961 94 357.47 94 358Z" fill="#0452D8"/>
<path d="M110 354C111.591 354 113.117 353.368 114.243 352.243C115.368 351.117 116 349.591 116 348C116 346.409 115.368 344.883 114.243 343.757C113.117 342.632 111.591 342 110 342C108.409 342 106.883 342.632 105.757 343.757C104.632 344.883 104 346.409 104 348C104 349.591 104.632 351.117 105.757 352.243C106.883 353.368 108.409 354 110 354ZM106 348C106 346.939 106.421 345.922 107.172 345.172C107.922 344.421 108.939 344 110 344C111.061 344 112.078 344.421 112.828 345.172C113.579 345.922 114 346.939 114 348C114 349.061 113.579 350.078 112.828 350.828C112.078 351.579 111.061 352 110 352C108.939 352 107.922 351.579 107.172 350.828C106.421 350.078 106 349.061 106 348Z" fill="#0452D8"/>
</g>
<circle cx="305.892" cy="229.888" r="11.8919" fill="#E4EAF0"/>
<circle cx="305.924" cy="277.456" r="11.8919" fill="#E4EAF0"/>
<circle cx="305.892" cy="324.892" r="11.8919" fill="#E4EAF0"/>
<defs>
<filter id="filter0_d_32_525" x="282.193" y="209.502" width="181.776" height="46.7182" filterUnits="userSpaceOnUse" color-interpolation-filters="sRGB">
<feFlood flood-opacity="0" result="BackgroundImageFix"/>
<feColorMatrix in="SourceAlpha" type="matrix" values="0 0 0 0 0 0 0 0 0 0 0 0 0 0 0 0 0 0 127 0" result="hardAlpha"/>
<feOffset dx="0.849421" dy="3.39768"/>
<feGaussianBlur stdDeviation="1.69884"/>
<feComposite in2="hardAlpha" operator="out"/>
<feColorMatrix type="matrix" values="0 0 0 0 0 0 0 0 0 0 0 0 0 0 0 0 0 0 0.1 0"/>
<feBlend mode="normal" in2="BackgroundImageFix" result="effect1_dropShadow_32_525"/>
<feBlend mode="normal" in="SourceGraphic" in2="effect1_dropShadow_32_525" result="shape"/>
</filter>
<filter id="filter1_d_32_525" x="282.193" y="257.069" width="181.776" height="46.7182" filterUnits="userSpaceOnUse" color-interpolation-filters="sRGB">
<feFlood flood-opacity="0" result="BackgroundImageFix"/>
<feColorMatrix in="SourceAlpha" type="matrix" values="0 0 0 0 0 0 0 0 0 0 0 0 0 0 0 0 0 0 127 0" result="hardAlpha"/>
<feOffset dx="0.849421" dy="3.39768"/>
<feGaussianBlur stdDeviation="1.69884"/>
<feComposite in2="hardAlpha" operator="out"/>
<feColorMatrix type="matrix" values="0 0 0 0 0 0 0 0 0 0 0 0 0 0 0 0 0 0 0.1 0"/>
<feBlend mode="normal" in2="BackgroundImageFix" result="effect1_dropShadow_32_525"/>
<feBlend mode="normal" in="SourceGraphic" in2="effect1_dropShadow_32_525" result="shape"/>
</filter>
<filter id="filter2_d_32_525" x="282.193" y="305.487" width="181.776" height="46.7182" filterUnits="userSpaceOnUse" color-interpolation-filters="sRGB">
<feFlood flood-opacity="0" result="BackgroundImageFix"/>
<feColorMatrix in="SourceAlpha" type="matrix" values="0 0 0 0 0 0 0 0 0 0 0 0 0 0 0 0 0 0 127 0" result="hardAlpha"/>
<feOffset dx="0.849421" dy="3.39768"/>
<feGaussianBlur stdDeviation="1.69884"/>
<feComposite in2="hardAlpha" operator="out"/>
<feColorMatrix type="matrix" values="0 0 0 0 0 0 0 0 0 0 0 0 0 0 0 0 0 0 0.1 0"/>
<feBlend mode="normal" in2="BackgroundImageFix" result="effect1_dropShadow_32_525"/>
<feBlend mode="normal" in="SourceGraphic" in2="effect1_dropShadow_32_525" result="shape"/>
</filter>
<linearGradient id="paint0_linear_32_525" x1="248.5" y1="0" x2="248.5" y2="497" gradientUnits="userSpaceOnUse">
<stop stop-color="#0775E3"/>
<stop offset="1" stop-color="#065AD8"/>
</linearGradient>
<linearGradient id="paint1_linear_32_525" x1="88" y1="246" x2="273" y2="246" gradientUnits="userSpaceOnUse">
<stop stop-color="#065AD8"/>
<stop offset="1" stop-color="white"/>
</linearGradient>
<clipPath id="clip0_32_525">
<rect width="32" height="32" fill="white" transform="translate(92 342)"/>
</clipPath>
</defs>
</svg>
