<svg width="25" height="24" viewBox="0 0 25 24" fill="none" xmlns="http://www.w3.org/2000/svg">
<path d="M19.9997 12C19.9997 11.77 19.9897 11.55 19.9697 11.32L21.8297 9.91C22.2297 9.61 22.3397 9.05 22.0897 8.61L20.2197 5.38C20.0998 5.16818 19.9058 5.00814 19.6751 4.93062C19.4444 4.8531 19.1931 4.86356 18.9697 4.96L16.8197 5.87C16.4497 5.61 16.0597 5.38 15.6497 5.19L15.3597 2.88C15.2997 2.38 14.8697 2 14.3697 2H10.6397C10.1297 2 9.69967 2.38 9.63967 2.88L9.34967 5.19C8.93967 5.38 8.54966 5.61 8.17967 5.87L6.02967 4.96C5.56967 4.76 5.02967 4.94 4.77967 5.38L2.90967 8.62C2.65967 9.06 2.76967 9.61 3.16967 9.92L5.02967 11.33C4.98821 11.779 4.98821 12.231 5.02967 12.68L3.16967 14.09C2.76967 14.39 2.65967 14.95 2.90967 15.39L4.77967 18.62C5.02967 19.06 5.56967 19.24 6.02967 19.04L8.17967 18.13C8.54966 18.39 8.93967 18.62 9.34967 18.81L9.63967 21.12C9.69967 21.62 10.1297 22 10.6297 22H14.3597C14.8597 22 15.2897 21.62 15.3497 21.12L15.6397 18.81C16.0497 18.62 16.4397 18.39 16.8097 18.13L18.9597 19.04C19.4197 19.24 19.9597 19.06 20.2097 18.62L22.0797 15.39C22.3297 14.95 22.2197 14.4 21.8197 14.09L19.9597 12.68C19.9897 12.45 19.9997 12.23 19.9997 12ZM12.5397 15.5C10.6097 15.5 9.03967 13.93 9.03967 12C9.03967 10.07 10.6097 8.5 12.5397 8.5C14.4697 8.5 16.0397 10.07 16.0397 12C16.0397 13.93 14.4697 15.5 12.5397 15.5Z" fill="white"/>
</svg>
