<svg width="205" height="54" viewBox="0 0 205 54" fill="none" xmlns="http://www.w3.org/2000/svg">
<circle cx="30.4999" cy="28.7273" r="16.3636" fill="#3370F5"/>
<circle cx="40.0455" cy="21.9091" r="9.54545" fill="#FF051A" fill-opacity="0.66"/>
<circle cx="20.0453" cy="16.4546" r="11.3636" fill="#FF9000" fill-opacity="0.6"/>
<circle cx="19.227" cy="32.1818" r="15.4545" fill="#913FFC" fill-opacity="0.78"/>
<circle cx="23.6819" cy="28.4546" r="17.7273" fill="white" fill-opacity="0.6"/>
<circle cx="22.1361" cy="28.7273" r="16.3636" fill="#413659"/>
<circle cx="22.1364" cy="28.7272" r="8.18182" fill="white"/>
<circle cx="22.1365" cy="28.7273" r="2.90909" fill="white" stroke="#413659" stroke-width="0.363636"/>
<circle cx="22.1363" cy="28.7272" r="0.727273" fill="white" stroke="#413659" stroke-width="0.363636"/>
<line x1="23.436" y1="26.2684" x2="26.3451" y2="21.5411" stroke="#413659" stroke-width="0.363636"/>
<line x1="25.0333" y1="28.364" x2="30.4879" y2="28.0004" stroke="#413659" stroke-width="0.363636"/>
<circle cx="24.8635" cy="50.7273" r="1.27273" fill="#913FFC" fill-opacity="0.78"/>
<circle cx="43.0457" cy="10.1818" r="1.27273" fill="#FF051A" fill-opacity="0.66"/>
<circle cx="38.0456" cy="49.1819" r="1.72727" fill="#FF9000" fill-opacity="0.6"/>
<circle cx="39.3184" cy="5" r="3" fill="#3370F5"/>
<circle cx="2.86364" cy="17.4546" r="2.36364" fill="#FF051A" fill-opacity="0.66"/>
<path d="M65.8958 27.096C66.2178 27.096 66.4908 27.0563 66.7148 26.977C66.9435 26.893 67.1302 26.7787 67.2748 26.634C67.4195 26.4893 67.5245 26.3213 67.5898 26.13C67.6552 25.934 67.6878 25.724 67.6878 25.5C67.6878 25.052 67.5408 24.702 67.2468 24.45C66.9575 24.198 66.5072 24.072 65.8958 24.072H64.9438V27.096H65.8958ZM70.9218 32.5H68.7798C68.3832 32.5 68.0985 32.3507 67.9258 32.052L66.2318 29.091C66.1525 28.965 66.0638 28.874 65.9658 28.818C65.8678 28.7573 65.7278 28.727 65.5458 28.727H64.9438V32.5H62.5778V22.301H65.8958C66.6332 22.301 67.2608 22.378 67.7788 22.532C68.3015 22.6813 68.7262 22.8913 69.0528 23.162C69.3842 23.4327 69.6245 23.7523 69.7738 24.121C69.9232 24.4897 69.9978 24.891 69.9978 25.325C69.9978 25.6563 69.9535 25.969 69.8648 26.263C69.7762 26.557 69.6455 26.83 69.4728 27.082C69.3002 27.3293 69.0855 27.551 68.8288 27.747C68.5768 27.943 68.2852 28.104 67.9538 28.23C68.1078 28.3093 68.2525 28.4097 68.3878 28.531C68.5232 28.6477 68.6445 28.7877 68.7518 28.951L70.9218 32.5ZM75.559 24.121V26.501H78.765V28.251H75.559V30.68H79.745V32.5H73.179V22.301H79.745V24.121H75.559ZM89.9334 24.177H87.0634V32.5H84.6974V24.177H81.8274V22.301H89.9334V24.177ZM95.8536 27.096C96.1756 27.096 96.4486 27.0563 96.6726 26.977C96.9013 26.893 97.088 26.7787 97.2326 26.634C97.3773 26.4893 97.4823 26.3213 97.5476 26.13C97.613 25.934 97.6456 25.724 97.6456 25.5C97.6456 25.052 97.4986 24.702 97.2046 24.45C96.9153 24.198 96.465 24.072 95.8536 24.072H94.9016V27.096H95.8536ZM100.88 32.5H98.7376C98.341 32.5 98.0563 32.3507 97.8836 32.052L96.1896 29.091C96.1103 28.965 96.0216 28.874 95.9236 28.818C95.8256 28.7573 95.6856 28.727 95.5036 28.727H94.9016V32.5H92.5356V22.301H95.8536C96.591 22.301 97.2186 22.378 97.7366 22.532C98.2593 22.6813 98.684 22.8913 99.0106 23.162C99.342 23.4327 99.5823 23.7523 99.7316 24.121C99.881 24.4897 99.9556 24.891 99.9556 25.325C99.9556 25.6563 99.9113 25.969 99.8226 26.263C99.734 26.557 99.6033 26.83 99.4306 27.082C99.258 27.3293 99.0433 27.551 98.7866 27.747C98.5346 27.943 98.243 28.104 97.9116 28.23C98.0656 28.3093 98.2103 28.4097 98.3456 28.531C98.481 28.6477 98.6023 28.7877 98.7096 28.951L100.88 32.5ZM112.969 27.397C112.969 28.1343 112.841 28.8203 112.584 29.455C112.332 30.0897 111.975 30.6427 111.513 31.114C111.051 31.5807 110.493 31.947 109.84 32.213C109.191 32.479 108.47 32.612 107.677 32.612C106.884 32.612 106.16 32.479 105.507 32.213C104.854 31.947 104.294 31.5807 103.827 31.114C103.365 30.6427 103.006 30.0897 102.749 29.455C102.497 28.8203 102.371 28.1343 102.371 27.397C102.371 26.6597 102.497 25.9737 102.749 25.339C103.006 24.7043 103.365 24.1537 103.827 23.687C104.294 23.2203 104.854 22.854 105.507 22.588C106.16 22.322 106.884 22.189 107.677 22.189C108.47 22.189 109.191 22.3243 109.84 22.595C110.493 22.861 111.051 23.2273 111.513 23.694C111.975 24.1607 112.332 24.7113 112.584 25.346C112.841 25.9807 112.969 26.6643 112.969 27.397ZM110.547 27.397C110.547 26.893 110.482 26.4403 110.351 26.039C110.22 25.633 110.031 25.29 109.784 25.01C109.541 24.73 109.243 24.5153 108.888 24.366C108.533 24.2167 108.13 24.142 107.677 24.142C107.22 24.142 106.811 24.2167 106.452 24.366C106.097 24.5153 105.796 24.73 105.549 25.01C105.306 25.29 105.12 25.633 104.989 26.039C104.858 26.4403 104.793 26.893 104.793 27.397C104.793 27.9057 104.858 28.363 104.989 28.769C105.12 29.1703 105.306 29.511 105.549 29.791C105.796 30.071 106.097 30.2857 106.452 30.435C106.811 30.5797 107.22 30.652 107.677 30.652C108.13 30.652 108.533 30.5797 108.888 30.435C109.243 30.2857 109.541 30.071 109.784 29.791C110.031 29.511 110.22 29.1703 110.351 28.769C110.482 28.363 110.547 27.9057 110.547 27.397ZM122.635 29.861C122.691 29.861 122.747 29.8727 122.803 29.896C122.859 29.9147 122.913 29.9497 122.964 30.001L123.902 30.988C123.492 31.5247 122.976 31.9307 122.355 32.206C121.739 32.4767 121.009 32.612 120.164 32.612C119.39 32.612 118.694 32.4813 118.078 32.22C117.467 31.954 116.947 31.59 116.517 31.128C116.093 30.6613 115.766 30.1107 115.537 29.476C115.309 28.8367 115.194 28.1437 115.194 27.397C115.194 26.6363 115.318 25.9387 115.565 25.304C115.813 24.6647 116.16 24.114 116.608 23.652C117.056 23.19 117.593 22.8307 118.218 22.574C118.844 22.3173 119.532 22.189 120.283 22.189C120.666 22.189 121.025 22.224 121.361 22.294C121.702 22.3593 122.019 22.4527 122.313 22.574C122.607 22.6907 122.878 22.833 123.125 23.001C123.373 23.169 123.592 23.351 123.783 23.547L122.985 24.618C122.934 24.6833 122.873 24.744 122.803 24.8C122.733 24.8513 122.635 24.877 122.509 24.877C122.425 24.877 122.346 24.8583 122.271 24.821C122.197 24.7837 122.117 24.7393 122.033 24.688C121.949 24.632 121.856 24.5737 121.753 24.513C121.655 24.4477 121.536 24.3893 121.396 24.338C121.261 24.282 121.1 24.2353 120.913 24.198C120.731 24.1607 120.517 24.142 120.269 24.142C119.877 24.142 119.518 24.2143 119.191 24.359C118.869 24.5037 118.589 24.716 118.351 24.996C118.118 25.2713 117.936 25.612 117.805 26.018C117.679 26.4193 117.616 26.879 117.616 27.397C117.616 27.9197 117.686 28.384 117.826 28.79C117.971 29.196 118.165 29.539 118.407 29.819C118.655 30.0943 118.942 30.3043 119.268 30.449C119.595 30.5937 119.945 30.666 120.318 30.666C120.533 30.666 120.729 30.6567 120.906 30.638C121.084 30.6147 121.249 30.5797 121.403 30.533C121.557 30.4817 121.702 30.4163 121.837 30.337C121.973 30.253 122.11 30.148 122.25 30.022C122.306 29.9753 122.367 29.938 122.432 29.91C122.498 29.8773 122.565 29.861 122.635 29.861ZM129.653 27.096C129.975 27.096 130.248 27.0563 130.472 26.977C130.701 26.893 130.888 26.7787 131.032 26.634C131.177 26.4893 131.282 26.3213 131.347 26.13C131.413 25.934 131.445 25.724 131.445 25.5C131.445 25.052 131.298 24.702 131.004 24.45C130.715 24.198 130.265 24.072 129.653 24.072H128.701V27.096H129.653ZM134.679 32.5H132.537C132.141 32.5 131.856 32.3507 131.683 32.052L129.989 29.091C129.91 28.965 129.821 28.874 129.723 28.818C129.625 28.7573 129.485 28.727 129.303 28.727H128.701V32.5H126.335V22.301H129.653C130.391 22.301 131.018 22.378 131.536 22.532C132.059 22.6813 132.484 22.8913 132.81 23.162C133.142 23.4327 133.382 23.7523 133.531 24.121C133.681 24.4897 133.755 24.891 133.755 25.325C133.755 25.6563 133.711 25.969 133.622 26.263C133.534 26.557 133.403 26.83 133.23 27.082C133.058 27.3293 132.843 27.551 132.586 27.747C132.334 27.943 132.043 28.104 131.711 28.23C131.865 28.3093 132.01 28.4097 132.145 28.531C132.281 28.6477 132.402 28.7877 132.509 28.951L134.679 32.5ZM142.326 28.601L141.381 25.808C141.311 25.6307 141.237 25.423 141.157 25.185C141.078 24.9423 140.999 24.681 140.919 24.401C140.849 24.6857 140.775 24.9493 140.695 25.192C140.616 25.4347 140.541 25.6447 140.471 25.822L139.533 28.601H142.326ZM146.085 32.5H144.251C144.046 32.5 143.88 32.4533 143.754 32.36C143.628 32.262 143.533 32.1383 143.467 31.989L142.865 30.211H138.987L138.385 31.989C138.334 32.1197 138.241 32.2387 138.105 32.346C137.975 32.4487 137.811 32.5 137.615 32.5H135.767L139.715 22.301H142.137L146.085 32.5ZM150.67 24.121V26.704H154.156V28.531H150.67V32.5H148.29V22.301H154.856V24.121H150.67ZM164.948 24.177H162.078V32.5H159.712V24.177H156.842V22.301H164.948V24.177ZM180.671 22.301V32.5H178.291V28.188H174.147V32.5H171.767V22.301H174.147V26.564H178.291V22.301H180.671ZM188.306 30.631C188.623 30.631 188.905 30.5797 189.153 30.477C189.405 30.3697 189.617 30.218 189.79 30.022C189.962 29.826 190.093 29.588 190.182 29.308C190.275 29.0233 190.322 28.7013 190.322 28.342V22.301H192.688V28.342C192.688 28.9673 192.585 29.5413 192.38 30.064C192.179 30.5867 191.89 31.037 191.512 31.415C191.134 31.793 190.674 32.087 190.133 32.297C189.591 32.507 188.982 32.612 188.306 32.612C187.624 32.612 187.013 32.507 186.472 32.297C185.93 32.087 185.471 31.793 185.093 31.415C184.715 31.037 184.425 30.5867 184.225 30.064C184.024 29.5413 183.924 28.9673 183.924 28.342V22.301H186.29V28.335C186.29 28.6943 186.334 29.0163 186.423 29.301C186.516 29.581 186.649 29.8213 186.822 30.022C186.994 30.218 187.204 30.3697 187.452 30.477C187.704 30.5797 187.988 30.631 188.306 30.631ZM199.968 30.715C200.281 30.715 200.535 30.6753 200.731 30.596C200.932 30.5167 201.088 30.414 201.2 30.288C201.312 30.162 201.389 30.0197 201.431 29.861C201.473 29.7023 201.494 29.5413 201.494 29.378C201.494 29.1913 201.468 29.0233 201.417 28.874C201.37 28.7247 201.286 28.5987 201.165 28.496C201.048 28.3933 200.892 28.314 200.696 28.258C200.5 28.202 200.253 28.174 199.954 28.174H198.302V30.715H199.968ZM198.302 24.072V26.592H199.534C199.795 26.592 200.031 26.5733 200.241 26.536C200.451 26.4987 200.628 26.4333 200.773 26.34C200.922 26.2467 201.034 26.1183 201.109 25.955C201.188 25.7917 201.228 25.5863 201.228 25.339C201.228 25.0963 201.198 24.8957 201.137 24.737C201.076 24.5737 200.983 24.443 200.857 24.345C200.731 24.247 200.57 24.177 200.374 24.135C200.183 24.093 199.954 24.072 199.688 24.072H198.302ZM199.688 22.301C200.393 22.301 200.992 22.3663 201.487 22.497C201.982 22.6277 202.385 22.812 202.698 23.05C203.011 23.288 203.237 23.5773 203.377 23.918C203.522 24.2587 203.594 24.639 203.594 25.059C203.594 25.2877 203.561 25.5093 203.496 25.724C203.431 25.934 203.328 26.1323 203.188 26.319C203.048 26.501 202.868 26.669 202.649 26.823C202.43 26.977 202.166 27.11 201.858 27.222C202.53 27.3853 203.027 27.649 203.349 28.013C203.671 28.377 203.832 28.8483 203.832 29.427C203.832 29.861 203.748 30.2647 203.58 30.638C203.412 31.0113 203.165 31.338 202.838 31.618C202.516 31.8933 202.117 32.1103 201.641 32.269C201.165 32.423 200.621 32.5 200.01 32.5H195.936V22.301H199.688Z" fill="#413659"/>
</svg>
