<svg width="46" height="47" viewBox="0 0 46 47" fill="none" xmlns="http://www.w3.org/2000/svg">
<rect x="0.5" y="1" width="45" height="45" rx="8.5" stroke="white"/>
<path d="M8.33268 38.1666C7.32435 38.1666 6.46146 37.8079 5.74402 37.0905C5.02657 36.373 4.66724 35.5095 4.66602 34.5V12.5C4.66602 11.4916 5.02535 10.6288 5.74402 9.91131C6.46268 9.19387 7.32557 8.83454 8.33268 8.83331H37.666C38.6744 8.83331 39.5378 9.19265 40.2565 9.91131C40.9752 10.63 41.3339 11.4929 41.3327 12.5V34.5C41.3327 35.5083 40.974 36.3718 40.2565 37.0905C39.5391 37.8091 38.6756 38.1679 37.666 38.1666H8.33268ZM22.9993 25.3333L37.666 16.1666V12.5L22.9993 21.6666L8.33268 12.5V16.1666L22.9993 25.3333Z" fill="#FFFEFE"/>
</svg>
