<svg width="46" height="47" viewBox="0 0 46 47" fill="none" xmlns="http://www.w3.org/2000/svg">
<rect x="0.5" y="1" width="45" height="45" rx="8.5" stroke="white"/>
<path d="M19.3327 5.16669H26.666C27.6385 5.16669 28.5711 5.553 29.2587 6.24063C29.9464 6.92826 30.3327 7.86089 30.3327 8.83335V12.5H37.666C38.6385 12.5 39.5711 12.8863 40.2587 13.574C40.9464 14.2616 41.3327 15.1942 41.3327 16.1667V36.3334C41.3327 37.3058 40.9464 38.2384 40.2587 38.9261C39.5711 39.6137 38.6385 40 37.666 40H8.33268C7.36022 40 6.42759 39.6137 5.73996 38.9261C5.05232 38.2384 4.66602 37.3058 4.66602 36.3334V16.1667C4.66602 14.1317 6.29768 12.5 8.33268 12.5H15.666V8.83335C15.666 6.79835 17.2977 5.16669 19.3327 5.16669ZM26.666 12.5V8.83335H19.3327V12.5H26.666Z" fill="white"/>
</svg>
