<svg width="9" height="14" viewBox="0 0 9 14" fill="none" xmlns="http://www.w3.org/2000/svg">
<path d="M7.94661 6.59275L1.67698 0.618999C1.57237 0.519274 1.43339 0.463642 1.28886 0.463642C1.14433 0.463642 1.00534 0.519274 0.900732 0.618999L0.893981 0.625749C0.843092 0.674094 0.80257 0.732286 0.77488 0.796786C0.747189 0.861286 0.73291 0.930744 0.73291 1.00094C0.73291 1.07113 0.747189 1.14059 0.77488 1.20509C0.80257 1.26959 0.843092 1.32778 0.893981 1.37612L6.79798 7.00112L0.893981 12.6239C0.843092 12.6722 0.80257 12.7304 0.77488 12.7949C0.747189 12.8594 0.73291 12.9289 0.73291 12.9991C0.73291 13.0693 0.747189 13.1387 0.77488 13.2032C0.80257 13.2677 0.843092 13.3259 0.893981 13.3742L0.900732 13.381C1.00534 13.4807 1.14433 13.5364 1.28886 13.5364C1.43339 13.5364 1.57237 13.4807 1.67698 13.381L7.94661 7.40725C8.00174 7.35471 8.04564 7.29153 8.07563 7.22153C8.10563 7.15152 8.12109 7.07616 8.12109 7C8.12109 6.92384 8.10563 6.84847 8.07563 6.77847C8.04564 6.70847 8.00174 6.64528 7.94661 6.59275Z" fill="#3370F5"/>
</svg>
