<svg width="24" height="24" viewBox="0 0 24 24" fill="none" xmlns="http://www.w3.org/2000/svg">
<path d="M9.23077 0C4.19723 0 0 3.46154 0 7.84615C0 10.0892 1.22769 12.0443 2.97138 13.4714C2.85879 14.2297 2.55051 14.9455 2.07692 15.5483C1.88365 15.7957 1.68168 16.0361 1.47138 16.2692C1.36252 16.384 1.26571 16.5095 1.18246 16.644C1.12985 16.7298 1.04769 16.8258 1.00985 17.0197C0.971077 17.2126 1.02369 17.5302 1.18246 17.7692L1.29785 17.9714L1.52862 18.0868C2.33631 18.4902 3.20862 18.4191 4.00985 18.2022C4.81015 17.9843 5.58 17.6114 6.31754 17.2209C7.05415 16.8314 7.75477 16.4234 8.30769 16.1252C8.38523 16.0837 8.43508 16.0735 8.50985 16.0385C9.96554 18.0397 12.6314 19.3846 15.6055 19.3846C15.6342 19.3883 15.6609 19.3846 15.6923 19.3846C16.8923 19.3846 20.7692 23.3483 23.0769 21.7791C23.1692 21.4108 21.048 20.4868 20.9418 17.7406C22.7483 16.464 23.9142 14.5652 23.9142 12.4615C23.9142 9.34892 21.444 6.77723 18.1449 5.856C17.1009 2.45908 13.4714 0 9.23077 0ZM9.23077 1.84615C13.428 1.84615 16.6154 4.66154 16.6154 7.84615C16.6154 11.0308 13.428 13.8462 9.23077 13.8462C8.48123 13.8462 8.05108 14.1526 7.44185 14.4812C6.83262 14.8089 6.13385 15.216 5.45169 15.5769C4.86092 15.8889 4.29785 16.1289 3.77908 16.2978C4.284 15.5686 4.81108 14.6095 4.90338 13.2692L4.93292 12.7495L4.5 12.4329C2.85508 11.28 1.84615 9.62123 1.84615 7.84615C1.84615 4.66154 5.03354 1.84615 9.23077 1.84615Z" fill="black"/>
</svg>
