<svg width="25" height="24" viewBox="0 0 25 24" fill="none" xmlns="http://www.w3.org/2000/svg">
<g clip-path="url(#clip0_148_120)">
<path d="M9.73077 0C4.69723 0 0.5 3.46154 0.5 7.84615C0.5 10.0892 1.72769 12.0443 3.47138 13.4714C3.35879 14.2297 3.05051 14.9455 2.57692 15.5483C2.38365 15.7957 2.18168 16.0361 1.97138 16.2692C1.86252 16.384 1.76571 16.5095 1.68246 16.644C1.62985 16.7298 1.54769 16.8258 1.50985 17.0197C1.47108 17.2126 1.52369 17.5302 1.68246 17.7692L1.79785 17.9714L2.02862 18.0868C2.83631 18.4902 3.70862 18.4191 4.50985 18.2022C5.31015 17.9843 6.08 17.6114 6.81754 17.2209C7.55415 16.8314 8.25477 16.4234 8.80769 16.1252C8.88523 16.0837 8.93508 16.0735 9.00985 16.0385C10.4655 18.0397 13.1314 19.3846 16.1055 19.3846C16.1342 19.3883 16.1609 19.3846 16.1923 19.3846C17.3923 19.3846 21.2692 23.3483 23.5769 21.7791C23.6692 21.4108 21.548 20.4868 21.4418 17.7406C23.2483 16.464 24.4142 14.5652 24.4142 12.4615C24.4142 9.34892 21.944 6.77723 18.6449 5.856C17.6009 2.45908 13.9714 0 9.73077 0ZM9.73077 1.84615C13.928 1.84615 17.1154 4.66154 17.1154 7.84615C17.1154 11.0308 13.928 13.8462 9.73077 13.8462C8.98123 13.8462 8.55108 14.1526 7.94185 14.4812C7.33262 14.8089 6.63385 15.216 5.95169 15.5769C5.36092 15.8889 4.79785 16.1289 4.27908 16.2978C4.784 15.5686 5.31108 14.6095 5.40338 13.2692L5.43292 12.7495L5 12.4329C3.35508 11.28 2.34615 9.62123 2.34615 7.84615C2.34615 4.66154 5.53354 1.84615 9.73077 1.84615Z" fill="white"/>
</g>
<defs>
<clipPath id="clip0_148_120">
<rect width="24" height="24" fill="white" transform="translate(0.5)"/>
</clipPath>
</defs>
</svg>
